Coordinates
version=1
nRows=19
nColumns=24
inDegrees=yes

Units are S.I. units (second, meters, Newtons, ...)
Angles are in degrees.

endheader
time	pelvis_tilt	pelvis_list	pelvis_rotation	pelvis_tx	pelvis_ty	pelvis_tz	hip_flexion_r	hip_adduction_r	hip_rotation_r	knee_angle_r	ankle_angle_r	subtalar_angle_r	mtp_angle_r	hip_flexion_l	hip_adduction_l	hip_rotation_l	knee_angle_l	ankle_angle_l	subtalar_angle_l	mtp_angle_l	lumbar_extension	lumbar_bending	lumbar_rotation
      0.80033333	     -1.54561896	     -3.83283956	      6.02497081	     -0.40562843	      0.90382627	      0.32706907	     15.32518961	      9.24244203	     -6.61192613	    -24.69166717	     11.77290949	     -1.66879678	      3.67226207	     17.08514554	     -8.61086918	     -4.33127480	    -72.50665640	     -1.24658668	     -7.78461849	      5.49089000	     -3.83780274	      6.40937977	     -1.81293488
      0.80450000	     -1.59914458	     -3.71778521	      5.83117917	     -0.40047990	      0.90489280	      0.32746945	     14.77733830	      9.21433181	     -6.38793364	    -24.25726147	     11.80694692	     -1.51545332	      3.66496240	     17.68127920	     -8.36882280	     -4.49840341	    -72.13240836	     -0.63530207	     -7.87924126	      5.43096134	     -3.81250149	      6.29550177	     -1.64916301
      0.80866667	     -1.60355561	     -3.60670898	      5.62839159	     -0.39527512	      0.90603815	      0.32792120	     14.14905949	      9.20003662	     -6.15658649	    -23.77194257	     11.88651177	     -1.34577187	      3.65230000	     18.19494381	     -8.15939682	     -4.69141597	    -71.67811065	     -0.04688465	     -7.79459439	      5.30985989	     -3.83223657	      6.15961895	     -1.24333536
      0.81283333	     -1.61393338	     -3.48564831	      5.41414512	     -0.39010198	      0.90717130	      0.32835606	     13.52732371	      9.16841386	     -5.91857548	    -23.28263506	     11.92116433	     -1.18386739	      3.64184311	     18.69839318	     -7.93116854	     -4.88996393	    -71.15737840	      0.51599912	     -7.77122737	      5.19508711	     -3.85075518	      6.02646856	     -0.93559846
      0.81700000	     -1.60976932	     -3.36178671	      5.19271038	     -0.38492857	      0.90831352	      0.32879556	     12.88176650	      9.13084481	     -5.68233010	    -22.77538046	     11.94867652	     -1.01207286	      3.63532575	     19.16714081	     -7.70562310	     -5.09846400	    -70.57152070	      1.05318312	     -7.71671805	      5.09571039	     -3.88713742	      5.89121004	     -0.64232527
      0.82116667	     -1.60150074	     -3.24284557	      4.96294017	     -0.37976224	      0.90944547	      0.32924277	     12.22434656	      9.09529551	     -5.44335875	    -22.24603606	     11.93867714	     -0.83265131	      3.62966584	     19.61554111	     -7.48987801	     -5.31271922	    -69.92544189	      1.56709334	     -7.65411942	      4.95985478	     -3.92638012	      5.76638660	     -0.28952283
      0.82533333	     -1.56439430	     -3.09982437	      4.72842800	     -0.37460352	      0.91060893	      0.32968535	     11.53256537	      9.03016204	     -5.20713541	    -21.71769061	     11.97703020	     -0.65939739	      3.63102324	     20.00626368	     -7.25049806	     -5.53742221	    -69.20336557	      2.05802255	     -7.55930361	      4.88918553	     -4.00526071	      5.60531359	     -0.04216620
      0.82950000	     -1.51930028	     -2.96487795	      4.48651465	     -0.36944396	      0.91175657	      0.33013983	     10.82432188	      8.97112849	     -4.96812291	    -21.16598503	     11.97871914	     -0.47949823	      3.63484869	     20.37237315	     -7.02712294	     -5.76982268	    -68.42582493	      2.52897232	     -7.45457659	      4.82553248	     -4.09016961	      5.45680957	      0.26437876
      0.83366667	     -1.46857963	     -2.82851004	      4.23782631	     -0.36429845	      0.91288118	      0.33060026	     10.10632511	      8.90632818	     -4.72471857	    -20.60168386	     11.96708839	     -0.30234532	      3.64170485	     20.71614030	     -6.80610036	     -6.00729043	    -67.59160001	      2.97642284	     -7.33491723	      4.76561117	     -4.18552058	      5.30635371	      0.58009592
      0.83783333	     -1.40737868	     -2.69316666	      3.98649750	     -0.35916973	      0.91398860	      0.33106015	      9.37514626	      8.83778754	     -4.48694811	    -20.02721841	     11.95414073	     -0.13021246	      3.65139983	     21.03249340	     -6.58774742	     -6.24557400	    -66.69908797	      3.39543864	     -7.20425293	      4.71177728	     -4.29143946	      5.15505496	      0.89167222
      0.84200000	     -1.36081174	     -2.53950554	      3.71563898	     -0.35407326	      0.91504196	      0.33152474	      8.67356384	      8.74034539	     -4.24463340	    -19.47800108	     11.89648732	      0.05896401	      3.65855526	     21.34172640	     -6.34924387	     -6.49955719	    -65.74406394	      3.80542712	     -7.08695431	      4.68185116	     -4.39003974	      4.98735264	      1.12288717
      0.84616667	     -1.26182429	     -2.41911159	      3.47281513	     -0.34893942	      0.91611890	      0.33199151	      7.88042793	      8.68255887	     -4.01255481	    -18.85118921	     11.90455221	      0.22044586	      3.67504954	     21.58998009	     -6.15884875	     -6.73130632	    -64.75148164	      4.16723260	     -6.91715455	      4.63277168	     -4.53617117	      4.84571603	      1.51205231
      0.85033333	     -1.18789843	     -2.28182946	      3.20760926	     -0.34385092	      0.91711584	      0.33246119	      7.13442507	      8.59647157	     -3.77225087	    -18.25948858	     11.86798147	      0.38305666	      3.69277014	     21.84361862	     -5.94708122	     -6.97759093	    -63.69931440	      4.51608981	     -6.76452405	      4.58804801	     -4.66043641	      4.68743154	      1.82778909
      0.85450000	     -1.12094380	     -2.13261831	      2.92828504	     -0.33879032	      0.91805801	      0.33293051	      6.40951633	      8.48786016	     -3.53846221	    -17.68988977	     11.80236040	      0.56199356	      3.70738234	     22.08298408	     -5.72247943	     -7.23292782	    -62.58690949	      4.84236616	     -6.62117486	      4.55796792	     -4.78228724	      4.52070388	      2.08158142
      0.85866667	     -1.02659316	     -2.01595110	      2.67443251	     -0.33370814	      0.91897160	      0.33339654	      5.62838058	      8.41503475	     -3.30974318	    -17.06034335	     11.78885152	      0.71866462	      3.73240099	     22.29148211	     -5.53757757	     -7.46052368	    -61.44685270	      5.13262470	     -6.46556974	      4.51491574	     -4.92831368	      4.37639308	      2.44093105
      0.86283333	     -0.97159730	     -1.86905290	      2.38631314	     -0.32868377	      0.91978460	      0.33386937	      4.92646314	      8.29527637	     -3.08409740	    -16.49962250	     11.70910883	      0.89382389	      3.74832549	     22.51424170	     -5.31819026	     -7.71333542	    -60.23792077	      5.39793496	     -6.32805889	      4.48906271	     -5.03917021	      4.20381749	      2.67254670
      0.86700000	     -0.87880585	     -1.77057508	      2.12594387	     -0.32363435	      0.92056979	      0.33433887	      4.15004142	      8.23159171	     -2.85348310	    -15.86150206	     11.67010134	      1.04030519	      3.79241600	     22.69810120	     -5.15799570	     -7.93473117	    -59.01267096	      5.64960493	     -6.17622910	      4.42671614	     -5.18301384	      4.08867210	      3.10554978
      0.87116667	     -0.81773491	     -1.62960689	      1.84431190	     -0.31862550	      0.92127154	      0.33480111	      3.44444312	      8.10629163	     -2.64382560	    -15.29914758	     11.62395022	      1.20949690	      3.81354430	     22.88409201	     -4.94485763	     -8.16836906	    -57.70780177	      5.83803712	     -6.05094483	      4.39874502	     -5.29706019	      3.91351676	      3.30369817
      0.87533333	     -0.73351929	     -1.52998268	      1.58519320	     -0.31360406	      0.92192172	      0.33525017	      2.68763462	      8.02658247	     -2.43401498	    -14.67504321	     11.60803494	      1.36944713	      3.84875011	     23.04591686	     -4.77759983	     -8.37298923	    -56.38792953	      6.01541593	     -5.93646595	      4.35601574	     -5.43565398	      3.78757966	      3.64501876
